# MagicaVoxel @ Ephtracy

# group
o 

# material
mtllib frontgroundV2.mtl
usemtl palette

# normals
vn -1 0 0
vn 1 0 0
vn 0 0 1
vn 0 0 -1
vn 0 -1 0
vn 0 1 0

# texcoords
vt 0.697266 0.5
vt 0.876953 0.5
vt 0.880859 0.5

# verts
v -2 0 2
v -2 0 -2
v -2 0.2 2
v -2 0.2 -2
v 2 0 2
v 2 0 1.9
v 2 0 -2
v 2 0.2 2
v 2 0.2 1.9
v 2 0.2 -2
v -2 0 2
v -2 0.2 2
v -1.8 0 2
v -1.8 0.1 2
v 1.8 0 2
v 1.8 0.1 2
v 1.8 0.2 2
v 2 0 2
v 2 0.2 2
v -2 0 -2
v -2 0.2 -2
v 2 0 -2
v 2 0.2 -2
v -2 0 2
v -1.8 0 2
v 1.8 0 2
v 2 0 2
v -1.8 0 1.9
v 1.8 0 1.9
v 2 0 1.9
v -2 0 -2
v 2 0 -2
v -2 0.2 2
v 1.8 0.2 2
v 2 0.2 2
v 1.8 0.2 1.9
v 2 0.2 1.9
v -2 0.2 -2
v 2 0.2 -2

# faces
f 3/3/1 2/3/1 1/3/1
f 4/3/1 2/3/1 3/3/1
f 5/1/2 6/1/2 8/1/2
f 6/3/2 7/3/2 9/3/2
f 8/1/2 6/1/2 9/1/2
f 9/3/2 7/3/2 10/3/2
f 13/3/3 12/3/3 11/3/3
f 14/3/3 12/3/3 13/3/3
f 15/2/3 14/2/3 13/2/3
f 16/3/3 12/3/3 14/3/3
f 16/2/3 14/2/3 15/2/3
f 17/3/3 12/3/3 16/3/3
f 18/1/3 16/1/3 15/1/3
f 18/1/3 17/1/3 16/1/3
f 19/1/3 17/1/3 18/1/3
f 20/3/4 21/3/4 22/3/4
f 22/3/4 21/3/4 23/3/4
f 28/3/5 25/3/5 24/3/5
f 28/2/5 26/2/5 25/2/5
f 29/1/5 27/1/5 26/1/5
f 29/2/5 26/2/5 28/2/5
f 30/1/5 27/1/5 29/1/5
f 31/3/5 28/3/5 24/3/5
f 31/3/5 29/3/5 28/3/5
f 31/3/5 30/3/5 29/3/5
f 32/3/5 30/3/5 31/3/5
f 33/3/6 34/3/6 36/3/6
f 34/1/6 35/1/6 36/1/6
f 36/1/6 35/1/6 37/1/6
f 33/3/6 36/3/6 38/3/6
f 36/3/6 37/3/6 38/3/6
f 38/3/6 37/3/6 39/3/6
