# MagicaVoxel @ Ephtracy

# group
o 

# material
mtllib mountainbaseV2.mtl
usemtl palette

# normals
vn -1 0 0
vn 1 0 0
vn 0 0 1
vn 0 0 -1
vn 0 -1 0
vn 0 1 0

# texcoords
vt 0.697266 0.5
vt 0.876953 0.5
vt 0.880859 0.5

# verts
v -2 0 2
v -2 0 -2
v -2 4 2
v -2 4 -2
v -1.8 0.2 2
v -1.8 0.2 -1.8
v -1.8 4 2
v -1.8 4 -1.8
v 2 0 2
v 2 0 -1.8
v 2 0 -2
v 2 0.2 2
v 2 0.2 -1.8
v 2 4 -1.8
v 2 4 -2
v -2 0 2
v -2 4 2
v -1.8 0 2
v -1.8 0.1 2
v -1.8 0.2 2
v -1.8 4 2
v 1.8 0 2
v 1.8 0.1 2
v 2 0 2
v 2 0.2 2
v -1.8 0.2 -1.8
v -1.8 4 -1.8
v 2 0.2 -1.8
v 2 4 -1.8
v -2 0 -2
v -2 4 -2
v 2 0 -2
v 2 4 -2
v -2 0 2
v -1.8 0 2
v 1.8 0 2
v 2 0 2
v -1.9 0 1.9
v -1.8 0 1.9
v 1.8 0 1.9
v 1.9 0 -1.8
v 2 0 -1.8
v -1.9 0 -1.9
v 1.9 0 -1.9
v -2 0 -2
v 2 0 -2
v -1.8 0.2 2
v 2 0.2 2
v -1.8 0.2 -1.8
v 2 0.2 -1.8
v -2 4 2
v -1.8 4 2
v -1.8 4 -1.8
v 2 4 -1.8
v -2 4 -2
v 2 4 -2

# faces
f 3/1/1 2/1/1 1/1/1
f 4/1/1 2/1/1 3/1/1
f 5/1/2 6/1/2 7/1/2
f 7/1/2 6/1/2 8/1/2
f 9/3/2 10/3/2 12/3/2
f 10/1/2 11/1/2 13/1/2
f 12/3/2 10/3/2 13/3/2
f 13/1/2 11/1/2 14/1/2
f 14/1/2 11/1/2 15/1/2
f 18/1/3 17/1/3 16/1/3
f 19/1/3 17/1/3 18/1/3
f 20/1/3 17/1/3 19/1/3
f 21/1/3 17/1/3 20/1/3
f 22/2/3 19/2/3 18/2/3
f 23/3/3 20/3/3 19/3/3
f 23/2/3 19/2/3 22/2/3
f 24/3/3 23/3/3 22/3/3
f 25/3/3 20/3/3 23/3/3
f 25/3/3 23/3/3 24/3/3
f 28/1/3 27/1/3 26/1/3
f 29/1/3 27/1/3 28/1/3
f 30/1/4 31/1/4 32/1/4
f 32/1/4 31/1/4 33/1/4
f 38/1/5 35/1/5 34/1/5
f 39/2/5 36/2/5 35/2/5
f 39/1/5 35/1/5 38/1/5
f 40/3/5 37/3/5 36/3/5
f 40/2/5 36/2/5 39/2/5
f 41/3/5 39/3/5 38/3/5
f 41/3/5 37/3/5 40/3/5
f 41/3/5 40/3/5 39/3/5
f 42/3/5 37/3/5 41/3/5
f 43/1/5 38/1/5 34/1/5
f 43/3/5 41/3/5 38/3/5
f 44/1/5 42/1/5 41/1/5
f 44/3/5 41/3/5 43/3/5
f 45/1/5 43/1/5 34/1/5
f 45/1/5 44/1/5 43/1/5
f 46/1/5 42/1/5 44/1/5
f 46/1/5 44/1/5 45/1/5
f 47/3/6 48/3/6 49/3/6
f 49/3/6 48/3/6 50/3/6
f 51/1/6 52/1/6 53/1/6
f 51/1/6 53/1/6 55/1/6
f 53/1/6 54/1/6 55/1/6
f 55/1/6 54/1/6 56/1/6
