# MagicaVoxel @ Ephtracy

# group
o 

# material
mtllib slewingrail.mtl
usemtl palette

# normals
vn -1 0 0
vn 1 0 0
vn 0 0 1
vn 0 0 -1
vn 0 -1 0
vn 0 1 0

# texcoords
vt 0.697266 0.5
vt 0.853516 0.5
vt 0.888672 0.5

# verts
v -2 0 2
v -2 0 -2
v -2 0.2 1.8
v -2 0.2 -1.8
v -2 3.8 1.8
v -2 3.8 -1.8
v -2 4 2
v -2 4 -2
v 1.8 0.2 2
v 1.8 0.2 1.8
v 1.8 0.2 -1.8
v 1.8 0.2 -2
v 1.8 3.8 2
v 1.8 3.8 1.8
v 1.8 3.8 -1.8
v 1.8 3.8 -2
v -1.8 0.2 2
v -1.8 0.2 1.8
v -1.8 0.2 -1.8
v -1.8 0.2 -2
v -1.8 3.8 2
v -1.8 3.8 1.8
v -1.8 3.8 -1.8
v -1.8 3.8 -2
v 2 0 2
v 2 0 -2
v 2 0.1 0.2
v 2 0.1 0.0999999
v 2 0.1 -0.1
v 2 0.1 -0.2
v 2 0.2 1.8
v 2 0.2 0.2
v 2 0.2 0.0999999
v 2 0.2 -0.1
v 2 0.2 -0.2
v 2 0.2 -1.8
v 2 3.8 1.8
v 2 3.8 -1.8
v 2 4 2
v 2 4 -2
v -2 0 2
v -2 4 2
v -1.8 0.2 2
v -1.8 3.8 2
v -0.2 0.1 2
v -0.2 0.2 2
v -0.0999999 0.1 2
v -0.0999999 0.2 2
v 0.1 0.1 2
v 0.1 0.2 2
v 0.2 0.1 2
v 0.2 0.2 2
v 1.8 0.2 2
v 1.8 3.8 2
v 2 0 2
v 2 4 2
v -2 0.2 -1.8
v -2 3.8 -1.8
v -1.8 0.2 -1.8
v -1.8 3.8 -1.8
v 1.8 0.2 -1.8
v 1.8 3.8 -1.8
v 2 0.2 -1.8
v 2 3.8 -1.8
v -2 0.2 1.8
v -2 3.8 1.8
v -1.8 0.2 1.8
v -1.8 3.8 1.8
v 1.8 0.2 1.8
v 1.8 3.8 1.8
v 2 0.2 1.8
v 2 3.8 1.8
v -2 0 -2
v -2 4 -2
v -1.8 0.2 -2
v -1.8 3.8 -2
v 1.8 0.2 -2
v 1.8 3.8 -2
v 2 0 -2
v 2 4 -2
v -2 0 2
v 2 0 2
v -2 0 -2
v 2 0 -2
v -1.8 3.8 2
v 1.8 3.8 2
v -2 3.8 1.8
v -1.8 3.8 1.8
v 1.8 3.8 1.8
v 2 3.8 1.8
v -2 3.8 -1.8
v -1.8 3.8 -1.8
v 1.8 3.8 -1.8
v 2 3.8 -1.8
v -1.8 3.8 -2
v 1.8 3.8 -2
v -1.8 0.2 2
v -0.2 0.2 2
v -0.0999999 0.2 2
v 0.1 0.2 2
v 0.2 0.2 2
v 1.8 0.2 2
v -0.3 0.2 1.9
v -0.2 0.2 1.9
v -0.0999999 0.2 1.9
v 0.1 0.2 1.9
v 0.2 0.2 1.9
v 0.3 0.2 1.9
v -2 0.2 1.8
v -1.8 0.2 1.8
v -0.3 0.2 1.8
v -0.2 0.2 1.8
v -0.0999999 0.2 1.8
v 0.1 0.2 1.8
v 0.2 0.2 1.8
v 0.3 0.2 1.8
v 1.8 0.2 1.8
v 2 0.2 1.8
v -0.3 0.2 1.6
v -0.2 0.2 1.6
v -0.0999999 0.2 1.6
v 0.1 0.2 1.6
v 0.2 0.2 1.6
v 0.3 0.2 1.6
v -0.3 0.2 1.5
v -0.2 0.2 1.5
v -0.0999999 0.2 1.5
v 0.1 0.2 1.5
v 0.2 0.2 1.5
v 0.3 0.2 1.5
v -0.3 0.2 1.3
v -0.2 0.2 1.3
v -0.0999999 0.2 1.3
v 0.1 0.2 1.3
v 0.2 0.2 1.3
v 0.3 0.2 1.3
v -0.3 0.2 1.2
v -0.2 0.2 1.2
v -0.0999999 0.2 1.2
v 0.1 0.2 1.2
v 0.2 0.2 1.2
v 0.3 0.2 1.2
v -0.3 0.2 1
v -0.2 0.2 1
v -0.0999999 0.2 1
v 0.1 0.2 1
v 0.2 0.2 1
v 0.3 0.2 1
v -0.3 0.2 0.9
v -0.2 0.2 0.9
v -0.0999999 0.2 0.9
v 0.1 0.2 0.9
v 0.2 0.2 0.9
v 0.3 0.2 0.9
v -0.3 0.2 0.7
v -0.2 0.2 0.7
v -0.0999999 0.2 0.7
v 0.1 0.2 0.7
v 0.2 0.2 0.7
v 0.3 0.2 0.7
v -0.3 0.2 0.6
v -0.2 0.2 0.6
v -0.0999999 0.2 0.6
v 0.1 0.2 0.6
v 0.2 0.2 0.6
v 0.3 0.2 0.6
v 0.2 0.2 0.5
v 0.3 0.2 0.5
v 0.1 0.2 0.4
v 0.2 0.2 0.4
v 0.3 0.2 0.4
v 2.38419e-07 0.2 0.3
v 0.1 0.2 0.3
v 0.2 0.2 0.3
v 0.3 0.2 0.3
v 0.4 0.2 0.3
v 0.6 0.2 0.3
v 0.8 0.2 0.3
v 0.9 0.2 0.3
v 1.1 0.2 0.3
v 1.2 0.2 0.3
v 1.4 0.2 0.3
v 1.5 0.2 0.3
v 1.7 0.2 0.3
v 1.8 0.2 0.3
v -0.0999999 0.2 0.2
v 2.38419e-07 0.2 0.2
v 0.1 0.2 0.2
v 0.2 0.2 0.2
v 0.3 0.2 0.2
v 0.4 0.2 0.2
v 0.5 0.2 0.2
v 0.6 0.2 0.2
v 0.8 0.2 0.2
v 0.9 0.2 0.2
v 1.1 0.2 0.2
v 1.2 0.2 0.2
v 1.4 0.2 0.2
v 1.5 0.2 0.2
v 1.7 0.2 0.2
v 1.8 0.2 0.2
v 2 0.2 0.2
v -0.2 0.2 0.0999999
v -0.0999999 0.2 0.0999999
v 2.38419e-07 0.2 0.0999999
v 0.1 0.2 0.0999999
v 0.2 0.2 0.0999999
v 0.3 0.2 0.0999999
v 0.4 0.2 0.0999999
v 0.5 0.2 0.0999999
v 0.6 0.2 0.0999999
v 0.8 0.2 0.0999999
v 0.9 0.2 0.0999999
v 1.1 0.2 0.0999999
v 1.2 0.2 0.0999999
v 1.4 0.2 0.0999999
v 1.5 0.2 0.0999999
v 1.7 0.2 0.0999999
v 1.8 0.2 0.0999999
v 2 0.2 0.0999999
v -0.2 0.2 -2.38419e-07
v -0.0999999 0.2 -2.38419e-07
v 2.38419e-07 0.2 -2.38419e-07
v 0.1 0.2 -2.38419e-07
v 0.2 0.2 -2.38419e-07
v 0.3 0.2 -2.38419e-07
v 2.38419e-07 0.2 -0.1
v 0.1 0.2 -0.1
v 0.2 0.2 -0.1
v 0.5 0.2 -0.1
v 0.6 0.2 -0.1
v 0.8 0.2 -0.1
v 0.9 0.2 -0.1
v 1.1 0.2 -0.1
v 1.2 0.2 -0.1
v 1.4 0.2 -0.1
v 1.5 0.2 -0.1
v 1.7 0.2 -0.1
v 1.8 0.2 -0.1
v 2 0.2 -0.1
v 2.38419e-07 0.2 -0.2
v 0.1 0.2 -0.2
v 0.5 0.2 -0.2
v 0.6 0.2 -0.2
v 0.8 0.2 -0.2
v 0.9 0.2 -0.2
v 1.1 0.2 -0.2
v 1.2 0.2 -0.2
v 1.4 0.2 -0.2
v 1.5 0.2 -0.2
v 1.7 0.2 -0.2
v 1.8 0.2 -0.2
v 2 0.2 -0.2
v 0.5 0.2 -0.3
v 0.6 0.2 -0.3
v 0.8 0.2 -0.3
v 0.9 0.2 -0.3
v 1.1 0.2 -0.3
v 1.2 0.2 -0.3
v 1.4 0.2 -0.3
v 1.5 0.2 -0.3
v 1.7 0.2 -0.3
v 1.8 0.2 -0.3
v -2 0.2 -1.8
v -1.8 0.2 -1.8
v 1.8 0.2 -1.8
v 2 0.2 -1.8
v -1.8 0.2 -2
v 1.8 0.2 -2
v -2 4 2
v 2 4 2
v -2 4 -2
v 2 4 -2

# faces
f 3/1/1 2/1/1 1/1/1
f 4/1/1 2/1/1 3/1/1
f 5/1/1 3/1/1 1/1/1
f 6/1/1 2/1/1 4/1/1
f 7/1/1 5/1/1 1/1/1
f 7/1/1 6/1/1 5/1/1
f 8/1/1 2/1/1 6/1/1
f 8/1/1 6/1/1 7/1/1
f 13/1/1 10/1/1 9/1/1
f 14/1/1 10/1/1 13/1/1
f 15/1/1 12/1/1 11/1/1
f 16/1/1 12/1/1 15/1/1
f 17/1/2 18/1/2 21/1/2
f 21/1/2 18/1/2 22/1/2
f 19/1/2 20/1/2 23/1/2
f 23/1/2 20/1/2 24/1/2
f 25/1/2 26/1/2 27/1/2
f 27/1/2 26/1/2 28/1/2
f 28/1/2 26/1/2 29/1/2
f 29/1/2 26/1/2 30/1/2
f 25/1/2 27/1/2 31/1/2
f 27/2/2 28/2/2 32/2/2
f 31/1/2 27/1/2 32/1/2
f 28/1/2 29/1/2 33/1/2
f 32/2/2 28/2/2 33/2/2
f 29/2/2 30/2/2 34/2/2
f 33/1/2 29/1/2 34/1/2
f 30/1/2 26/1/2 35/1/2
f 34/2/2 30/2/2 35/2/2
f 35/1/2 26/1/2 36/1/2
f 25/1/2 31/1/2 37/1/2
f 36/1/2 26/1/2 38/1/2
f 25/1/2 37/1/2 39/1/2
f 37/1/2 38/1/2 39/1/2
f 38/1/2 26/1/2 40/1/2
f 39/1/2 38/1/2 40/1/2
f 43/1/3 42/1/3 41/1/3
f 44/1/3 42/1/3 43/1/3
f 45/1/3 43/1/3 41/1/3
f 46/1/3 43/1/3 45/1/3
f 47/1/3 45/1/3 41/1/3
f 47/2/3 46/2/3 45/2/3
f 48/2/3 46/2/3 47/2/3
f 49/1/3 47/1/3 41/1/3
f 49/1/3 48/1/3 47/1/3
f 50/1/3 48/1/3 49/1/3
f 51/1/3 49/1/3 41/1/3
f 51/2/3 50/2/3 49/2/3
f 52/2/3 50/2/3 51/2/3
f 53/1/3 52/1/3 51/1/3
f 54/1/3 42/1/3 44/1/3
f 55/1/3 53/1/3 51/1/3
f 55/1/3 54/1/3 53/1/3
f 55/1/3 51/1/3 41/1/3
f 56/1/3 42/1/3 54/1/3
f 56/1/3 54/1/3 55/1/3
f 59/1/3 58/1/3 57/1/3
f 60/1/3 58/1/3 59/1/3
f 63/1/3 62/1/3 61/1/3
f 64/1/3 62/1/3 63/1/3
f 65/1/4 66/1/4 67/1/4
f 67/1/4 66/1/4 68/1/4
f 69/1/4 70/1/4 71/1/4
f 71/1/4 70/1/4 72/1/4
f 73/1/4 74/1/4 75/1/4
f 75/1/4 74/1/4 76/1/4
f 73/1/4 75/1/4 77/1/4
f 76/1/4 74/1/4 78/1/4
f 73/1/4 77/1/4 79/1/4
f 77/1/4 78/1/4 79/1/4
f 78/1/4 74/1/4 80/1/4
f 79/1/4 78/1/4 80/1/4
f 83/1/5 82/1/5 81/1/5
f 84/1/5 82/1/5 83/1/5
f 88/1/5 86/1/5 85/1/5
f 89/1/5 86/1/5 88/1/5
f 91/1/5 88/1/5 87/1/5
f 91/1/5 90/1/5 89/1/5
f 91/1/5 89/1/5 88/1/5
f 92/1/5 90/1/5 91/1/5
f 93/1/5 90/1/5 92/1/5
f 94/1/5 90/1/5 93/1/5
f 95/1/5 93/1/5 92/1/5
f 96/1/5 93/1/5 95/1/5
f 97/1/6 98/1/6 103/1/6
f 98/2/6 99/2/6 104/2/6
f 103/1/6 98/1/6 104/1/6
f 99/1/6 100/1/6 105/1/6
f 104/2/6 99/2/6 105/2/6
f 100/2/6 101/2/6 106/2/6
f 105/1/6 100/1/6 106/1/6
f 101/1/6 102/1/6 107/1/6
f 106/2/6 101/2/6 107/2/6
f 107/1/6 102/1/6 108/1/6
f 97/1/6 103/1/6 110/1/6
f 105/3/6 106/3/6 111/3/6
f 103/3/6 104/3/6 111/3/6
f 110/1/6 103/1/6 111/1/6
f 104/3/6 105/3/6 111/3/6
f 107/3/6 108/3/6 111/3/6
f 106/3/6 107/3/6 111/3/6
f 111/3/6 108/3/6 112/3/6
f 112/3/6 108/3/6 113/3/6
f 113/3/6 108/3/6 114/3/6
f 114/3/6 108/3/6 115/3/6
f 108/1/6 102/1/6 116/1/6
f 115/3/6 108/3/6 116/3/6
f 116/1/6 102/1/6 117/1/6
f 109/1/6 110/1/6 119/1/6
f 110/1/6 111/1/6 119/1/6
f 111/1/6 112/1/6 119/1/6
f 112/2/6 113/2/6 120/2/6
f 119/1/6 112/1/6 120/1/6
f 113/1/6 114/1/6 121/1/6
f 120/2/6 113/2/6 121/2/6
f 114/2/6 115/2/6 122/2/6
f 121/1/6 114/1/6 122/1/6
f 117/1/6 118/1/6 123/1/6
f 122/2/6 115/2/6 123/2/6
f 116/1/6 117/1/6 123/1/6
f 115/1/6 116/1/6 123/1/6
f 123/1/6 118/1/6 124/1/6
f 121/3/6 122/3/6 125/3/6
f 120/3/6 121/3/6 125/3/6
f 123/3/6 124/3/6 125/3/6
f 122/3/6 123/3/6 125/3/6
f 109/1/6 119/1/6 125/1/6
f 119/3/6 120/3/6 125/3/6
f 125/3/6 124/3/6 126/3/6
f 126/3/6 124/3/6 127/3/6
f 127/3/6 124/3/6 128/3/6
f 128/3/6 124/3/6 129/3/6
f 124/1/6 118/1/6 130/1/6
f 129/3/6 124/3/6 130/3/6
f 109/1/6 125/1/6 131/1/6
f 125/1/6 126/1/6 131/1/6
f 126/2/6 127/2/6 132/2/6
f 131/1/6 126/1/6 132/1/6
f 127/1/6 128/1/6 133/1/6
f 132/2/6 127/2/6 133/2/6
f 128/2/6 129/2/6 134/2/6
f 133/1/6 128/1/6 134/1/6
f 129/1/6 130/1/6 135/1/6
f 134/2/6 129/2/6 135/2/6
f 130/1/6 118/1/6 136/1/6
f 135/1/6 130/1/6 136/1/6
f 132/3/6 133/3/6 137/3/6
f 134/3/6 135/3/6 137/3/6
f 135/3/6 136/3/6 137/3/6
f 131/3/6 132/3/6 137/3/6
f 109/1/6 131/1/6 137/1/6
f 133/3/6 134/3/6 137/3/6
f 137/3/6 136/3/6 138/3/6
f 138/3/6 136/3/6 139/3/6
f 139/3/6 136/3/6 140/3/6
f 140/3/6 136/3/6 141/3/6
f 136/1/6 118/1/6 142/1/6
f 141/3/6 136/3/6 142/3/6
f 109/1/6 137/1/6 143/1/6
f 137/1/6 138/1/6 143/1/6
f 138/2/6 139/2/6 144/2/6
f 143/1/6 138/1/6 144/1/6
f 139/1/6 140/1/6 145/1/6
f 144/2/6 139/2/6 145/2/6
f 140/2/6 141/2/6 146/2/6
f 145/1/6 140/1/6 146/1/6
f 141/1/6 142/1/6 147/1/6
f 146/2/6 141/2/6 147/2/6
f 142/1/6 118/1/6 148/1/6
f 147/1/6 142/1/6 148/1/6
f 144/3/6 145/3/6 149/3/6
f 146/3/6 147/3/6 149/3/6
f 147/3/6 148/3/6 149/3/6
f 143/3/6 144/3/6 149/3/6
f 109/1/6 143/1/6 149/1/6
f 145/3/6 146/3/6 149/3/6
f 149/3/6 148/3/6 150/3/6
f 150/3/6 148/3/6 151/3/6
f 151/3/6 148/3/6 152/3/6
f 152/3/6 148/3/6 153/3/6
f 148/1/6 118/1/6 154/1/6
f 153/3/6 148/3/6 154/3/6
f 109/1/6 149/1/6 155/1/6
f 149/1/6 150/1/6 155/1/6
f 150/2/6 151/2/6 156/2/6
f 155/1/6 150/1/6 156/1/6
f 151/1/6 152/1/6 157/1/6
f 156/2/6 151/2/6 157/2/6
f 152/2/6 153/2/6 158/2/6
f 157/1/6 152/1/6 158/1/6
f 153/1/6 154/1/6 159/1/6
f 158/2/6 153/2/6 159/2/6
f 154/1/6 118/1/6 160/1/6
f 159/1/6 154/1/6 160/1/6
f 156/3/6 157/3/6 161/3/6
f 158/3/6 159/3/6 161/3/6
f 159/3/6 160/3/6 161/3/6
f 155/3/6 156/3/6 161/3/6
f 109/1/6 155/1/6 161/1/6
f 157/3/6 158/3/6 161/3/6
f 161/3/6 160/3/6 162/3/6
f 162/3/6 160/3/6 163/3/6
f 163/3/6 160/3/6 164/3/6
f 164/3/6 160/3/6 165/3/6
f 160/1/6 118/1/6 166/1/6
f 165/3/6 160/3/6 166/3/6
f 164/2/6 165/2/6 167/2/6
f 165/1/6 166/1/6 167/1/6
f 166/1/6 118/1/6 168/1/6
f 167/1/6 166/1/6 168/1/6
f 164/2/6 167/2/6 169/2/6
f 163/1/6 164/1/6 169/1/6
f 167/3/6 168/3/6 170/3/6
f 169/2/6 167/2/6 170/2/6
f 168/1/6 118/1/6 171/1/6
f 170/3/6 168/3/6 171/3/6
f 163/1/6 169/1/6 172/1/6
f 169/3/6 170/3/6 173/3/6
f 172/1/6 169/1/6 173/1/6
f 170/2/6 171/2/6 174/2/6
f 173/3/6 170/3/6 174/3/6
f 171/1/6 118/1/6 175/1/6
f 174/2/6 171/2/6 175/2/6
f 175/1/6 118/1/6 176/1/6
f 176/1/6 118/1/6 177/1/6
f 177/1/6 118/1/6 178/1/6
f 178/1/6 118/1/6 179/1/6
f 179/1/6 118/1/6 180/1/6
f 180/1/6 118/1/6 181/1/6
f 181/1/6 118/1/6 182/1/6
f 182/1/6 118/1/6 183/1/6
f 183/1/6 118/1/6 184/1/6
f 184/1/6 118/1/6 185/1/6
f 163/1/6 172/1/6 186/1/6
f 162/2/6 163/2/6 186/2/6
f 172/3/6 173/3/6 187/3/6
f 186/1/6 172/1/6 187/1/6
f 173/1/6 174/1/6 188/1/6
f 187/3/6 173/3/6 188/3/6
f 174/2/6 175/2/6 189/2/6
f 188/1/6 174/1/6 189/1/6
f 175/2/6 176/2/6 189/2/6
f 189/2/6 176/2/6 190/2/6
f 176/3/6 177/3/6 191/3/6
f 190/2/6 176/2/6 191/2/6
f 191/3/6 177/3/6 192/3/6
f 177/1/6 178/1/6 193/1/6
f 192/3/6 177/3/6 193/3/6
f 178/3/6 179/3/6 194/3/6
f 193/1/6 178/1/6 194/1/6
f 179/1/6 180/1/6 195/1/6
f 194/3/6 179/3/6 195/3/6
f 180/3/6 181/3/6 196/3/6
f 195/1/6 180/1/6 196/1/6
f 181/1/6 182/1/6 197/1/6
f 196/3/6 181/3/6 197/3/6
f 182/3/6 183/3/6 198/3/6
f 197/1/6 182/1/6 198/1/6
f 183/1/6 184/1/6 199/1/6
f 198/3/6 183/3/6 199/3/6
f 184/3/6 185/3/6 200/3/6
f 199/1/6 184/1/6 200/1/6
f 185/1/6 118/1/6 201/1/6
f 200/3/6 185/3/6 201/3/6
f 201/1/6 118/1/6 202/1/6
f 161/1/6 162/1/6 203/1/6
f 162/2/6 186/2/6 203/2/6
f 186/3/6 187/3/6 204/3/6
f 203/2/6 186/2/6 204/2/6
f 187/1/6 188/1/6 205/1/6
f 204/3/6 187/3/6 205/3/6
f 189/1/6 190/1/6 205/1/6
f 188/1/6 189/1/6 205/1/6
f 205/1/6 190/1/6 206/1/6
f 206/1/6 190/1/6 207/1/6
f 190/3/6 191/3/6 208/3/6
f 207/1/6 190/1/6 208/1/6
f 191/2/6 192/2/6 209/2/6
f 208/3/6 191/3/6 209/3/6
f 192/3/6 193/3/6 210/3/6
f 209/2/6 192/2/6 210/2/6
f 193/2/6 194/2/6 211/2/6
f 210/3/6 193/3/6 211/3/6
f 194/3/6 195/3/6 212/3/6
f 211/2/6 194/2/6 212/2/6
f 195/2/6 196/2/6 213/2/6
f 212/3/6 195/3/6 213/3/6
f 196/3/6 197/3/6 214/3/6
f 213/2/6 196/2/6 214/2/6
f 197/2/6 198/2/6 215/2/6
f 214/3/6 197/3/6 215/3/6
f 198/3/6 199/3/6 216/3/6
f 215/2/6 198/2/6 216/2/6
f 199/2/6 200/2/6 217/2/6
f 216/3/6 199/3/6 217/3/6
f 200/3/6 201/3/6 218/3/6
f 217/2/6 200/2/6 218/2/6
f 201/2/6 202/2/6 219/2/6
f 218/3/6 201/3/6 219/3/6
f 219/2/6 202/2/6 220/2/6
f 161/1/6 203/1/6 221/1/6
f 203/3/6 204/3/6 221/3/6
f 204/2/6 205/2/6 222/2/6
f 221/3/6 204/3/6 222/3/6
f 205/2/6 206/2/6 222/2/6
f 222/2/6 206/2/6 223/2/6
f 206/1/6 207/1/6 224/1/6
f 223/2/6 206/2/6 224/2/6
f 207/3/6 208/3/6 225/3/6
f 224/1/6 207/1/6 225/1/6
f 208/1/6 209/1/6 226/1/6
f 225/3/6 208/3/6 226/3/6
f 209/1/6 210/1/6 226/1/6
f 223/2/6 224/2/6 227/2/6
f 221/1/6 222/1/6 227/1/6
f 222/1/6 223/1/6 227/1/6
f 224/3/6 225/3/6 228/3/6
f 227/2/6 224/2/6 228/2/6
f 225/1/6 226/1/6 229/1/6
f 228/3/6 225/3/6 229/3/6
f 226/1/6 210/1/6 230/1/6
f 229/1/6 226/1/6 230/1/6
f 210/3/6 211/3/6 230/3/6
f 211/1/6 212/1/6 231/1/6
f 230/3/6 211/3/6 231/3/6
f 212/3/6 213/3/6 232/3/6
f 231/1/6 212/1/6 232/1/6
f 213/1/6 214/1/6 233/1/6
f 232/3/6 213/3/6 233/3/6
f 214/3/6 215/3/6 234/3/6
f 233/1/6 214/1/6 234/1/6
f 215/1/6 216/1/6 235/1/6
f 234/3/6 215/3/6 235/3/6
f 216/3/6 217/3/6 236/3/6
f 235/1/6 216/1/6 236/1/6
f 217/1/6 218/1/6 237/1/6
f 236/3/6 217/3/6 237/3/6
f 218/3/6 219/3/6 238/3/6
f 237/1/6 218/1/6 238/1/6
f 219/1/6 220/1/6 239/1/6
f 238/3/6 219/3/6 239/3/6
f 239/1/6 220/1/6 240/1/6
f 221/1/6 227/1/6 241/1/6
f 227/3/6 228/3/6 241/3/6
f 228/2/6 229/2/6 242/2/6
f 241/3/6 228/3/6 242/3/6
f 229/2/6 230/2/6 242/2/6
f 230/3/6 231/3/6 243/3/6
f 242/2/6 230/2/6 243/2/6
f 231/2/6 232/2/6 244/2/6
f 243/3/6 231/3/6 244/3/6
f 232/3/6 233/3/6 245/3/6
f 244/2/6 232/2/6 245/2/6
f 233/2/6 234/2/6 246/2/6
f 245/3/6 233/3/6 246/3/6
f 234/3/6 235/3/6 247/3/6
f 246/2/6 234/2/6 247/2/6
f 235/2/6 236/2/6 248/2/6
f 247/3/6 235/3/6 248/3/6
f 236/3/6 237/3/6 249/3/6
f 248/2/6 236/2/6 249/2/6
f 237/2/6 238/2/6 250/2/6
f 249/3/6 237/3/6 250/3/6
f 238/3/6 239/3/6 251/3/6
f 250/2/6 238/2/6 251/2/6
f 239/2/6 240/2/6 252/2/6
f 251/3/6 239/3/6 252/3/6
f 252/2/6 240/2/6 253/2/6
f 243/3/6 244/3/6 254/3/6
f 242/1/6 243/1/6 254/1/6
f 241/1/6 242/1/6 254/1/6
f 244/1/6 245/1/6 255/1/6
f 254/3/6 244/3/6 255/3/6
f 245/3/6 246/3/6 256/3/6
f 255/1/6 245/1/6 256/1/6
f 246/1/6 247/1/6 257/1/6
f 256/3/6 246/3/6 257/3/6
f 247/3/6 248/3/6 258/3/6
f 257/1/6 247/1/6 258/1/6
f 248/1/6 249/1/6 259/1/6
f 258/3/6 248/3/6 259/3/6
f 249/3/6 250/3/6 260/3/6
f 259/1/6 249/1/6 260/1/6
f 250/1/6 251/1/6 261/1/6
f 260/3/6 250/3/6 261/3/6
f 251/3/6 252/3/6 262/3/6
f 261/1/6 251/1/6 262/1/6
f 252/1/6 253/1/6 263/1/6
f 262/3/6 252/3/6 263/3/6
f 241/1/6 254/1/6 264/1/6
f 109/1/6 161/1/6 264/1/6
f 262/1/6 263/1/6 264/1/6
f 256/1/6 257/1/6 264/1/6
f 260/1/6 261/1/6 264/1/6
f 258/1/6 259/1/6 264/1/6
f 161/1/6 221/1/6 264/1/6
f 259/1/6 260/1/6 264/1/6
f 255/1/6 256/1/6 264/1/6
f 221/1/6 241/1/6 264/1/6
f 254/1/6 255/1/6 264/1/6
f 261/1/6 262/1/6 264/1/6
f 257/1/6 258/1/6 264/1/6
f 264/1/6 263/1/6 265/1/6
f 263/1/6 253/1/6 266/1/6
f 265/1/6 263/1/6 266/1/6
f 266/1/6 253/1/6 267/1/6
f 265/1/6 266/1/6 268/1/6
f 268/1/6 266/1/6 269/1/6
f 270/1/6 271/1/6 272/1/6
f 272/1/6 271/1/6 273/1/6
